Coordinates
version=1
nRows=26
nColumns=22
inDegrees=yes

Units are S.I. units (second, meters, Newtons, ...)
If the header above contains a line with 'inDegrees', this indicates whether rotational values are in degrees (yes) or radians (no).

endheader
time	pelvis_tilt	pelvis_list	pelvis_rotation	pelvis_tx	pelvis_ty	pelvis_tz	hip_flexion_r	hip_adduction_r	hip_rotation_r	knee_angle_r	ankle_angle_r	subtalar_angle_r	hip_flexion_l	hip_adduction_l	hip_rotation_l	knee_angle_l	ankle_angle_l	subtalar_angle_l	lumbar_extension	lumbar_bending	lumbar_rotation
      1.26000000	     -4.34165271	     -2.59696983	     -3.17503240	     -1.16368984	      0.95078835	      0.39763231	     11.16460382	      4.10135154	     -3.97019351	    -22.18759269	     14.93633625	     -2.57773892	     10.38512693	     -3.08996791	     -7.26022547	    -23.37334211	     14.44860938	     -6.52001125	     -4.37982382	      1.26591145	     -0.68646370
      1.27000000	     -4.36757735	     -2.58382829	     -3.17562559	     -1.16301721	      0.95066076	      0.39828796	     11.20169002	      4.13761043	     -3.94506792	    -22.28898699	     14.98139337	     -2.60249488	     10.35324550	     -3.12050950	     -7.26459072	    -23.35186825	     14.45872403	     -6.50524062	     -4.37984703	      1.24418557	     -0.73863325
      1.28000000	     -4.45033846	     -2.51359188	     -3.20634735	     -1.16234657	      0.95040469	      0.39903557	     11.31895050	      4.12262851	     -3.88772652	    -22.42225849	     15.12836161	     -2.75255592	     10.39256071	     -3.10344091	     -7.30683476	    -23.35363677	     14.51461383	     -6.39091848	     -4.31150056	      1.15162711	     -0.74487320
      1.29000000	     -4.47507117	     -2.49661996	     -3.21459235	     -1.16160488	      0.95024311	      0.39980964	     11.33062095	      4.16279784	     -3.84213676	    -22.49165622	     15.24536487	     -2.79922858	     10.37410032	     -3.13974143	     -7.31085070	    -23.37434128	     14.56049760	     -6.36259389	     -4.31567090	      1.11960689	     -0.78432248
      1.30000000	     -4.50881942	     -2.46896923	     -3.23689791	     -1.16079705	      0.95006719	      0.40066573	     11.33608524	      4.19752479	     -3.77927168	    -22.54063467	     15.36781848	     -2.85318049	     10.35299829	     -3.17258947	     -7.33762033	    -23.38121981	     14.61369758	     -6.31162597	     -4.30293405	      1.07391795	     -0.81542294
      1.31000000	     -4.54028548	     -2.44842000	     -3.26753461	     -1.15992798	      0.94988930	      0.40159059	     11.31637526	      4.24437812	     -3.70466169	    -22.55864976	     15.48441915	     -2.90222160	     10.32834162	     -3.21816656	     -7.37001968	    -23.39705282	     14.67041053	     -6.25130870	     -4.29012211	      1.03616887	     -0.83906493
      1.32000000	     -4.56621777	     -2.43663139	     -3.31385094	     -1.15900006	      0.94971219	      0.40260149	     11.26793825	      4.30656741	     -3.61423216	    -22.54561232	     15.60101947	     -2.95420059	     10.29831448	     -3.28014671	     -7.41139425	    -23.42670114	     14.74435253	     -6.17038183	     -4.28152732	      1.00702822	     -0.84453578
      1.33000000	     -4.58282485	     -2.44039882	     -3.37568925	     -1.15800601	      0.94953968	      0.40369084	     11.18944085	      4.39052601	     -3.50676321	    -22.50906330	     15.70752415	     -3.00910169	     10.25855902	     -3.36410329	     -7.45789968	    -23.47127425	     14.83422952	     -6.06525577	     -4.28046335	      0.99648714	     -0.83891697
      1.34000000	     -4.59176237	     -2.45418031	     -3.44707411	     -1.15692675	      0.94937849	      0.40486915	     11.07023819	      4.49073584	     -3.38781633	    -22.42653758	     15.77705648	     -3.08170163	     10.20971164	     -3.46850334	     -7.52663741	    -23.52534440	     14.95282635	     -5.89671288	     -4.28150651	      0.99457944	     -0.82857303
      1.35000000	     -4.61397561	     -2.47935605	     -3.50828539	     -1.15582114	      0.94916440	      0.40608134	     10.96113877	      4.60475321	     -3.26951253	    -22.34742816	     15.91189464	     -3.11046189	     10.19863058	     -3.58004261	     -7.53035436	    -23.62311063	     15.03150517	     -5.84083370	     -4.26674476	      1.01167758	     -0.84349775
      1.36000000	     -4.62609401	     -2.52671724	     -3.59240279	     -1.15465862	      0.94894786	      0.40739696	     10.81804802	      4.74949908	     -3.13100233	    -22.23556060	     16.01028307	     -3.13838073	     10.20438195	     -3.72817167	     -7.54813906	    -23.78613206	     15.14271253	     -5.75856366	     -4.26156040	      1.05064496	     -0.81766454
      1.37000000	     -4.62251917	     -2.60976374	     -3.69747328	     -1.15343008	      0.94874078	      0.40883002	     10.64136221	      4.94092710	     -2.98156380	    -22.10128581	     16.03099652	     -3.18461349	     10.22027617	     -3.92976053	     -7.58558703	    -24.01820905	     15.31939319	     -5.55402708	     -4.27147692	      1.12391827	     -0.73888773
      1.38000000	     -4.62162725	     -2.70323715	     -3.79788582	     -1.15219923	      0.94849466	      0.41029912	     10.46843937	      5.14489953	     -2.82941246	    -21.97356876	     16.10942328	     -3.21469191	     10.28751903	     -4.14257529	     -7.56759729	    -24.33560186	     15.46503375	     -5.38307519	     -4.28521666	      1.21328490	     -0.68243555
      1.39000000	     -4.61589576	     -2.81963217	     -3.90784541	     -1.15093664	      0.94822236	      0.41181814	     10.28663216	      5.37593190	     -2.66671187	    -21.84715768	     16.18160392	     -3.25045429	     10.40503311	     -4.38854153	     -7.53110585	    -24.76350346	     15.63504089	     -5.06895521	     -4.30479258	      1.33449717	     -0.60919430
      1.40000000	     -4.60208537	     -2.97111286	     -4.02592689	     -1.14963129	      0.94793066	      0.41339577	     10.07235361	      5.64576465	     -2.50951940	    -21.68639869	     16.25146559	     -3.24162762	     10.57188031	     -4.68108479	     -7.48021531	    -25.30562226	     15.76907435	     -4.97693785	     -4.33674387	      1.49567608	     -0.50699717
      1.41000000	     -4.58457753	     -3.15070590	     -4.15282380	     -1.14838012	      0.94760511	      0.41502842	      9.86823408	      5.94838717	     -2.34190910	    -21.55166373	     16.26779373	     -3.22463734	     10.82328384	     -5.01548715	     -7.39818095	    -26.00786691	     15.93419781	     -4.71267459	     -4.39156409	      1.69008628	     -0.39248966
      1.42000000	     -4.57755228	     -3.33744224	     -4.27883896	     -1.14709152	      0.94723287	      0.41667356	      9.65273825	      6.25390345	     -2.20350309	    -21.38446126	     16.35117878	     -3.20013200	     11.16730047	     -5.36603570	     -7.28736381	    -26.85844225	     16.06735825	     -4.32661759	     -4.43525224	      1.89668784	     -0.25409746
      1.43000000	     -4.53404561	     -3.54745832	     -4.41277747	     -1.14581532	      0.94689274	      0.41834952	      9.38524151	      6.58264355	     -2.05311766	    -21.19894884	     16.39023303	     -3.16246658	     11.55965629	     -5.74805695	     -7.15250013	    -27.86729135	     16.14513005	     -4.12169362	     -4.53818567	      2.12824486	     -0.10226869
      1.44000000	     -4.52182027	     -3.75074892	     -4.53934094	     -1.14456995	      0.94648931	      0.42000838	      9.15706268	      6.89800428	     -1.94734887	    -21.02271348	     16.46690846	     -3.11053138	     12.09870486	     -6.13041805	     -6.96425273	    -29.06583590	     16.17046621	     -3.69545209	     -4.61426809	      2.35817379	      0.07125585
      1.45000000	     -4.45801404	     -3.96358878	     -4.67322134	     -1.14334622	      0.94618082	      0.42168839	      8.85653789	      7.22377635	     -1.81390739	    -20.81670034	     16.49563700	     -3.06153592	     12.68007367	     -6.52717770	     -6.74639627	    -30.43160742	     16.07201890	     -3.43671561	     -4.77144427	      2.59148269	      0.25670994
      1.46000000	     -4.44238934	     -4.13928533	     -4.80033508	     -1.14218903	      0.94580683	      0.42330739	      8.63674586	      7.50164369	     -1.73855823	    -20.65205535	     16.58594943	     -3.00734779	     13.44344820	     -6.88472429	     -6.45830222	    -32.00148298	     15.85563567	     -2.95068036	     -4.88555782	      2.79047947	      0.46904589
      1.47000000	     -4.36503750	     -4.30542491	     -4.93302403	     -1.14103941	      0.94558790	      0.42489369	      8.33457924	      7.76835311	     -1.61181301	    -20.45781941	     16.60111623	     -2.96510635	     14.24101468	     -7.22626415	     -6.13865913	    -33.73335781	     15.44089881	     -2.61527376	     -5.08973381	      2.97614311	      0.68847434
      1.48000000	     -4.33259096	     -4.41916531	     -5.06370577	     -1.13993759	      0.94533050	      0.42640880	      8.10875087	      7.97297801	     -1.53590264	    -20.30026872	     16.69395232	     -2.94523689	     15.21126684	     -7.50792324	     -5.77168413	    -35.64847785	     14.84415729	     -2.14368581	     -5.25264476	      3.10685496	      0.93716684
      1.49000000	     -4.25666072	     -4.50924815	     -5.19930048	     -1.13881339	      0.94521416	      0.42785622	      7.82715433	      8.14836599	     -1.42655282	    -20.12621230	     16.73219391	     -2.94413766	     16.22353050	     -7.75114188	     -5.38592131	    -37.68958989	     14.02440256	     -1.76312222	     -5.47689453	      3.21124394	      1.20494859
      1.50000000	     -4.17787029	     -4.55670433	     -5.33792296	     -1.13767579	      0.94515631	      0.42923156	      7.55117078	      8.27415690	     -1.31157137	    -19.96321795	     16.78272324	     -2.97262871	     17.32136421	     -7.94207699	     -5.00565166	    -39.84097610	     12.99600243	     -1.40476233	     -5.71244634	      3.26947980	      1.47720964
      1.51000000	     -4.08198976	     -4.57575504	     -5.48115393	     -1.13647093	      0.94517861	      0.43052806	      7.25237169	      8.36301452	     -1.18734247	    -19.79538781	     16.82330473	     -3.02168839	     18.46290011	     -8.09494663	     -4.65032703	    -42.05169181	     11.78886726	     -1.11913883	     -5.96922982	      3.29859848	      1.77045368
